<svg width="20" height="20" viewBox="0 0 20 20" fill="none" xmlns="http://www.w3.org/2000/svg">
<path d="M10 -0.0012207C4.49 -0.0012207 0 4.48878 0 9.99878C0 15.5088 4.49 19.9988 10 19.9988C15.51 19.9988 20 15.5088 20 9.99878C20 4.48878 15.51 -0.0012207 10 -0.0012207ZM9.25 5.99878C9.25 5.58878 9.59 5.24878 10 5.24878C10.41 5.24878 10.75 5.58878 10.75 5.99878V10.9988C10.75 11.4088 10.41 11.7488 10 11.7488C9.59 11.7488 9.25 11.4088 9.25 10.9988V5.99878ZM10.92 14.3788C10.87 14.5088 10.8 14.6088 10.71 14.7088C10.61 14.7988 10.5 14.8688 10.38 14.9188C10.26 14.9688 10.13 14.9988 10 14.9988C9.87 14.9988 9.74 14.9688 9.62 14.9188C9.5 14.8688 9.39 14.7988 9.29 14.7088C9.2 14.6088 9.13 14.5088 9.08 14.3788C9.03 14.2588 9 14.1288 9 13.9988C9 13.8688 9.03 13.7388 9.08 13.6188C9.13 13.4988 9.2 13.3888 9.29 13.2888C9.39 13.1988 9.5 13.1288 9.62 13.0788C9.86 12.9788 10.14 12.9788 10.38 13.0788C10.5 13.1288 10.61 13.1988 10.71 13.2888C10.8 13.3888 10.87 13.4988 10.92 13.6188C10.97 13.7388 11 13.8688 11 13.9988C11 14.1288 10.97 14.2588 10.92 14.3788Z" fill="#B3B4B8"/>
</svg>
