<svg width="24" height="25" viewBox="0 0 24 25" fill="none" xmlns="http://www.w3.org/2000/svg">
<path d="M17.5172 13.509C17.5078 11.9105 18.232 10.7058 19.6945 9.81755C18.8766 8.64568 17.6391 8.00115 16.0078 7.87693C14.4633 7.75505 12.7734 8.77693 12.1547 8.77693C11.5008 8.77693 10.0055 7.91912 8.82891 7.91912C6.40078 7.95662 3.82031 9.85505 3.82031 13.7176C3.82031 14.859 4.02891 16.0379 4.44609 17.2519C5.00391 18.8504 7.01484 22.7668 9.1125 22.7035C10.2094 22.6777 10.9852 21.9254 12.4125 21.9254C13.7977 21.9254 14.5148 22.7035 15.7383 22.7035C17.8547 22.673 19.6734 19.1129 20.2031 17.5097C17.3648 16.1715 17.5172 13.591 17.5172 13.509ZM15.0539 6.36052C16.2422 4.94958 16.1344 3.66521 16.0992 3.20349C15.0492 3.26443 13.8352 3.91834 13.1437 4.72224C12.382 5.58474 11.9344 6.65115 12.0305 7.85349C13.1648 7.94021 14.2008 7.35662 15.0539 6.36052Z" fill="white"/>
</svg>
