<svg width="24" height="24" viewBox="0 0 24 24" fill="none" xmlns="http://www.w3.org/2000/svg">
<path d="M18.0691 13.6801C17.8791 13.6801 17.6891 13.7501 17.5391 13.9001L11.9991 19.4401L6.45914 13.9001C6.16914 13.6101 5.68914 13.6101 5.39914 13.9001C5.10914 14.1901 5.10914 14.6701 5.39914 14.9601L11.4691 21.0301C11.7591 21.3201 12.2391 21.3201 12.5291 21.0301L18.5991 14.9601C18.8891 14.6701 18.8891 14.1901 18.5991 13.9001C18.4591 13.7501 18.2591 13.6801 18.0691 13.6801Z" fill="#F15950"/>
<path d="M12 2.75008C11.59 2.75008 11.25 3.09008 11.25 3.50008V20.3301C11.25 20.7401 11.59 21.0801 12 21.0801C12.41 21.0801 12.75 20.7401 12.75 20.3301V3.50008C12.75 3.09008 12.41 2.75008 12 2.75008Z" fill="#F15950"/>
</svg>
