<svg width="18" height="18" viewBox="0 0 18 18" fill="none" xmlns="http://www.w3.org/2000/svg">
<g clip-path="url(#clip0_4_747)">
<path d="M12.129 8.25H3.75C3.33579 8.25 3 8.58579 3 9C3 9.41422 3.33579 9.75 3.75 9.75H12.129L8.63625 13.2428C8.3434 13.5356 8.3434 14.0104 8.63625 14.3033C8.9291 14.5961 9.4039 14.5961 9.69675 14.3033L14.2929 9.70711C14.6834 9.31659 14.6834 8.68342 14.2929 8.2929L9.69675 3.69675C9.4039 3.4039 8.9291 3.4039 8.63625 3.69675C8.3434 3.9896 8.3434 4.46441 8.63625 4.75725L12.129 8.25Z" fill="#00BDB0"/>
</g>
<defs>
<clipPath id="clip0_4_747">
<rect width="18" height="18" fill="white" transform="matrix(-1 0 0 1 18 0)"/>
</clipPath>
</defs>
</svg>
