<svg width="23" height="23" viewBox="0 0 23 23" fill="none" xmlns="http://www.w3.org/2000/svg">
<path d="M18.6124 11.6507C18.6124 12.0041 18.3498 12.2961 18.0091 12.3423L17.9144 12.3487L3.95514 12.3487C3.56966 12.3487 3.25717 12.0362 3.25717 11.6507C3.25717 11.2974 3.51975 11.0053 3.86043 10.9591L3.95514 10.9528L17.9144 10.9528C18.2999 10.9528 18.6124 11.2652 18.6124 11.6507Z" fill="white"/>
<path d="M10.0777 16.7625C10.3508 17.0345 10.3518 17.4764 10.0798 17.7495C9.83255 17.9979 9.44484 18.0212 9.17116 17.8191L9.09274 17.7517L3.46248 12.1456C3.21342 11.8976 3.19076 11.5085 3.39452 11.2348L3.46244 11.1565L9.09269 5.54948C9.36583 5.27747 9.80776 5.27839 10.0798 5.55152C10.327 5.79983 10.3488 6.18763 10.1455 6.46045L10.0777 6.53859L4.94439 11.6513L10.0777 16.7625Z" fill="white"/>
</svg>
