<svg width="25" height="24" viewBox="0 0 25 24" fill="none" xmlns="http://www.w3.org/2000/svg">
<path fill-rule="evenodd" clip-rule="evenodd" d="M8.75003 13C8.75003 10.9289 10.429 9.25 12.5 9.25C14.5711 9.25 16.25 10.9289 16.25 13C16.25 15.0711 14.5711 16.75 12.5 16.75C10.429 16.75 8.75003 15.0711 8.75003 13ZM12.5 10.75C11.2574 10.75 10.25 11.7574 10.25 13C10.25 14.2426 11.2574 15.25 12.5 15.25C13.7427 15.25 14.75 14.2426 14.75 13C14.75 11.7574 13.7427 10.75 12.5 10.75Z" fill="white"/>
<path fill-rule="evenodd" clip-rule="evenodd" d="M11.1162 5.75C10.071 5.75 9.22372 6.59728 9.22372 7.64245C9.22372 8.30841 8.7125 8.86283 8.04872 8.91674L5.81912 9.09782C5.38135 9.13337 5.02132 9.45709 4.93961 9.88864C4.49087 12.2586 4.45741 14.6886 4.84072 17.0701L4.93797 17.6743C5.02982 18.2449 5.49945 18.679 6.07551 18.7258L8.01783 18.8835C11.0011 19.1258 13.999 19.1258 16.9822 18.8835L18.9246 18.7258C19.5006 18.679 19.9703 18.2449 20.0621 17.6743L20.1593 17.0701C20.5427 14.6886 20.5092 12.2586 20.0605 9.88864C19.9787 9.45709 19.6187 9.13337 19.181 9.09782L16.9514 8.91674C16.2876 8.86284 15.7764 8.30841 15.7764 7.64245C15.7764 6.59728 14.9291 5.75 13.8839 5.75H11.1162ZM7.7298 7.4377C7.83565 5.65944 9.31132 4.25 11.1162 4.25H13.8839C15.6888 4.25 17.1644 5.65944 17.2703 7.4377L19.3024 7.60274C20.4133 7.69296 21.3269 8.51446 21.5343 9.60958C22.0153 12.1503 22.0512 14.7554 21.6403 17.3084L21.543 17.9126C21.3414 19.1652 20.3105 20.1182 19.046 20.2209L17.1037 20.3786C14.0396 20.6274 10.9605 20.6274 7.89641 20.3786L5.95409 20.2209C4.68956 20.1182 3.65865 19.1652 3.45703 17.9126L3.35978 17.3084C2.94885 14.7554 2.98472 12.1503 3.4658 9.60958C3.67315 8.51446 4.58678 7.69296 5.6977 7.60274L7.7298 7.4377Z" fill="white"/>
</svg>
