<svg width="20" height="21" viewBox="0 0 20 21" fill="none" xmlns="http://www.w3.org/2000/svg">
<path d="M2.5 5.9061C7.34537 4.14751 12.6546 4.14751 17.5 5.9061" stroke="#F15950" stroke-width="1.25" stroke-linecap="round" stroke-linejoin="round"/>
<path d="M6.6748 4.84749C6.6748 3.96344 7.02599 3.11564 7.65111 2.49052C8.27623 1.8654 9.12408 1.51416 10.0081 1.51416C10.8922 1.51416 11.74 1.8654 12.3652 2.49052C12.9903 3.11564 13.3415 3.96344 13.3415 4.84749" stroke="#F15950" stroke-width="1.25" stroke-linecap="round" stroke-linejoin="round"/>
<path d="M10 10.9143V15.081" stroke="#F15950" stroke-width="1.25" stroke-linecap="round" stroke-linejoin="round"/>
<path d="M15.8334 8.40576L15.275 15.0724C15.1855 15.9733 14.7688 16.81 14.1038 17.4243C13.4389 18.0386 12.5718 18.3878 11.6667 18.4058H8.33335C7.42826 18.3878 6.56116 18.0386 5.89619 17.4243C5.23123 16.81 4.81456 15.9733 4.72503 15.0724L4.16669 8.40576" stroke="#F15950" stroke-width="1.25" stroke-linecap="round" stroke-linejoin="round"/>
</svg>
