<svg width="20" height="20" viewBox="0 0 20 20" fill="none" xmlns="http://www.w3.org/2000/svg">
<path fill-rule="evenodd" clip-rule="evenodd" d="M9.8141 11.2207C9.2566 11.2207 8.70076 11.0365 8.23576 10.6682L4.49826 7.65485C4.2291 7.43818 4.18743 7.04401 4.40326 6.77568C4.62076 6.50818 5.0141 6.46568 5.28243 6.68151L9.0166 9.69151C9.48576 10.0632 10.1466 10.0632 10.6191 9.68818L14.3158 6.68318C14.5841 6.46401 14.9774 6.50568 15.1958 6.77401C15.4133 7.04151 15.3724 7.43485 15.1049 7.65318L11.4016 10.6632C10.9333 11.0348 10.3733 11.2207 9.8141 11.2207Z" fill="white"/>
<mask id="mask0_166_147" style="mask-type:luminance" maskUnits="userSpaceOnUse" x="0" y="1" width="19" height="17">
<path fill-rule="evenodd" clip-rule="evenodd" d="M0.833344 1.66669H18.7499V17.9167H0.833344V1.66669Z" fill="white"/>
</mask>
<g mask="url(#mask0_166_147)">
<path fill-rule="evenodd" clip-rule="evenodd" d="M5.69909 16.6667H13.8824C13.8841 16.665 13.8908 16.6667 13.8958 16.6667C14.8466 16.6667 15.6899 16.3267 16.3366 15.6809C17.0874 14.9334 17.4999 13.8592 17.4999 12.6567V6.93335C17.4999 4.60585 15.9783 2.91669 13.8824 2.91669H5.70075C3.60492 2.91669 2.08325 4.60585 2.08325 6.93335V12.6567C2.08325 13.8592 2.49659 14.9334 3.24659 15.6809C3.89325 16.3267 4.73742 16.6667 5.68742 16.6667H5.69909ZM5.68492 17.9167C4.39909 17.9167 3.25075 17.45 2.36409 16.5667C1.37659 15.5817 0.833252 14.1934 0.833252 12.6567V6.93335C0.833252 3.93085 2.92575 1.66669 5.70075 1.66669H13.8824C16.6574 1.66669 18.7499 3.93085 18.7499 6.93335V12.6567C18.7499 14.1934 18.2066 15.5817 17.2191 16.5667C16.3333 17.4492 15.1841 17.9167 13.8958 17.9167H13.8824H5.70075H5.68492Z" fill="white"/>
</g>
</svg>
