<svg width="16" height="16" viewBox="0 0 16 16" fill="none" xmlns="http://www.w3.org/2000/svg">
<path fill-rule="evenodd" clip-rule="evenodd" d="M6.53478 10.4045C6.40715 10.4045 6.27952 10.356 6.18247 10.2583C5.6919 9.76838 5.42136 9.11695 5.42136 8.4243C5.42136 6.98848 6.58862 5.82056 8.0231 5.82056C8.71309 5.82056 9.38314 6.09908 9.86108 6.58499C10.0539 6.78175 10.0519 7.09684 9.8551 7.28961C9.659 7.48371 9.34392 7.48038 9.15048 7.28495C8.85867 6.98782 8.44787 6.81765 8.0231 6.81765C7.13835 6.81765 6.41845 7.53822 6.41845 8.4243C6.41845 8.85039 6.5853 9.25189 6.88708 9.55367C7.08185 9.74844 7.08185 10.0635 6.88775 10.2583C6.79003 10.356 6.6624 10.4045 6.53478 10.4045Z" fill="white"/>
<path fill-rule="evenodd" clip-rule="evenodd" d="M8.40023 10.9855C8.16425 10.9855 7.95419 10.8167 7.91032 10.576C7.86113 10.3055 8.04061 10.0456 8.31182 9.99638C8.96325 9.87805 9.47908 9.3609 9.59607 8.7088C9.64526 8.43825 9.90451 8.26011 10.1751 8.30664C10.4463 8.35516 10.6264 8.61441 10.5779 8.88562C10.3871 9.94453 9.54821 10.7847 8.48997 10.9775C8.46005 10.9828 8.42947 10.9855 8.40023 10.9855Z" fill="white"/>
<mask id="mask0_166_231" style="mask-type:luminance" maskUnits="userSpaceOnUse" x="1" y="3" width="12" height="10">
<path fill-rule="evenodd" clip-rule="evenodd" d="M1.37581 3.09717H12.0688V12.4686H1.37581V3.09717Z" fill="white"/>
</mask>
<g mask="url(#mask0_166_231)">
<path fill-rule="evenodd" clip-rule="evenodd" d="M4.4696 12.4686C4.36191 12.4686 4.25356 12.4334 4.16183 12.3622C3.03777 11.4795 2.08787 10.1853 1.4165 8.62048C1.36199 8.49418 1.36199 8.35193 1.4165 8.2263C2.09519 6.65488 3.05107 5.35401 4.18111 4.46526C6.48505 2.64191 9.55211 2.63593 11.8793 4.47856C12.0954 4.64939 12.1319 4.96315 11.9611 5.17918C11.7896 5.39389 11.4772 5.43178 11.2605 5.26028C9.28888 3.6995 6.74895 3.70481 4.79864 5.24831C3.84409 5.99946 3.02448 7.0936 2.41957 8.42439C3.01849 9.7472 3.83079 10.8347 4.77803 11.5779C4.99473 11.748 5.03196 12.0618 4.86179 12.2778C4.76341 12.4028 4.61717 12.4686 4.4696 12.4686Z" fill="white"/>
</g>
<mask id="mask1_166_231" style="mask-type:luminance" maskUnits="userSpaceOnUse" x="5" y="5" width="10" height="9">
<path fill-rule="evenodd" clip-rule="evenodd" d="M5.84112 5.8338H14.6704V13.7761H5.84112V5.8338Z" fill="white"/>
</mask>
<g mask="url(#mask1_166_231)">
<path fill-rule="evenodd" clip-rule="evenodd" d="M8.02318 13.7761C7.40033 13.7761 6.7808 13.6751 6.18254 13.4763C5.92131 13.3892 5.77972 13.1067 5.8668 12.8455C5.95388 12.5836 6.23506 12.4447 6.49763 12.5298C6.99418 12.6953 7.50735 12.779 8.02318 12.779C10.3019 12.779 12.3845 11.1558 13.6268 8.42306C13.3237 7.75899 12.9708 7.15741 12.5759 6.63228C12.4104 6.41225 12.4543 6.09916 12.6743 5.93365C12.8936 5.76813 13.2067 5.81333 13.3723 6.03269C13.8535 6.6715 14.2763 7.41001 14.6293 8.22497C14.6844 8.35127 14.6844 8.49485 14.6293 8.62048C13.236 11.8491 10.7665 13.7761 8.02318 13.7761Z" fill="white"/>
</g>
<mask id="mask2_166_231" style="mask-type:luminance" maskUnits="userSpaceOnUse" x="2" y="2" width="12" height="13">
<path fill-rule="evenodd" clip-rule="evenodd" d="M2.28216 2.68237H13.7643V14.1642H2.28216V2.68237Z" fill="white"/>
</mask>
<g mask="url(#mask2_166_231)">
<path fill-rule="evenodd" clip-rule="evenodd" d="M2.78054 14.1644C2.65291 14.1644 2.52528 14.1158 2.42823 14.0181C2.23347 13.8234 2.23347 13.5083 2.42823 13.3135L12.9137 2.82808C13.1084 2.63332 13.4235 2.63332 13.6183 2.82808C13.813 3.02285 13.813 3.33859 13.6183 3.53336L3.13284 14.0181C3.03579 14.1158 2.90817 14.1644 2.78054 14.1644Z" fill="white"/>
</g>
</svg>
