<svg width="78" height="58" viewBox="0 0 78 58" fill="none" xmlns="http://www.w3.org/2000/svg">
<path d="M3.10434 57.8296V2.75139V2.09958C6.99445 1.42304 8.33788 4.33331 10.5604 6.62228C12.8296 9.21506 16.0714 15.0488 24.7904 14.8099C26.1208 14.4006 29.0619 13.5063 34.3191 12.5286C42.6538 11.1483 48.1384 26.0465 50.1098 28.6538C52.0813 31.261 54.9253 31.9018 55.9155 31.9018C56.9057 31.9018 59.8823 31.2537 61.1966 31.2537C68.5568 30.9929 73.9673 37.1889 75.7197 40.2307V57.8296H3.10434Z" fill="url(#paint0_linear_40_2535)"/>
<path d="M75.9272 42.1187L73.601 40.8559L74.8638 38.5297L77.19 39.7925L75.9272 42.1187ZM61.4559 30.9231V30.5989H61.4652L61.4744 30.5994L61.4559 30.9231ZM47.5164 24.7638L47.7914 24.5919L47.7967 24.601L47.5164 24.7638ZM32.6043 12.7692L32.71 13.0757L32.6586 13.0934H32.6043V12.7692ZM12.8296 8.87913L13.0859 8.68067L12.8296 8.87913ZM2.78013 2.3956L2.61929 2.11413L2.63801 2.10344L2.65798 2.09531L2.78013 2.3956ZM0.506752 1.46699L3.06037 0.770558L3.75681 3.32418L1.20318 4.02061L0.506752 1.46699ZM75.3955 40.3242L75.0847 40.4163C74.2531 37.6098 70.3581 31.7565 61.4375 31.2467L61.4559 30.9231L61.4744 30.5994C70.7076 31.1271 74.8089 37.2034 75.7063 40.2321L75.3955 40.3242ZM61.4559 30.9231V31.2473C60.6071 31.2473 59.7027 31.4786 58.6589 31.6915C57.6339 31.9006 56.507 32.0823 55.2976 31.9337C52.8462 31.6327 50.1795 29.9959 47.236 24.9265L47.5164 24.7638L47.7967 24.601C50.6884 29.5811 53.2086 31.024 55.3766 31.2902C56.477 31.4253 57.5181 31.2625 58.5293 31.0563C59.5217 30.8538 60.5218 30.5989 61.4559 30.5989V30.9231ZM47.5164 24.7638L47.2415 24.9356C47.0274 24.593 46.7816 24.0948 46.5032 23.5102C46.2215 22.9187 45.9023 22.2301 45.5339 21.4831C44.7976 19.9904 43.8765 18.2901 42.7202 16.775C41.563 15.2587 40.1842 13.9463 38.5395 13.2067C36.9049 12.4716 34.9845 12.2914 32.71 13.0757L32.6043 12.7692L32.4986 12.4628C34.9246 11.6262 37.0159 11.8107 38.8054 12.6154C40.5849 13.4156 42.0425 14.8183 43.2356 16.3816C44.4297 17.9462 45.3725 19.6903 46.1153 21.1962C46.4864 21.9485 46.8105 22.6478 47.0885 23.2314C47.3698 23.8219 47.6002 24.2861 47.7913 24.5919L47.5164 24.7638ZM32.6043 12.7692V13.0934C32.3747 13.0934 32.0178 13.1747 31.515 13.3249C31.0154 13.4741 30.4378 13.6696 29.7475 13.8842C28.3874 14.307 26.6885 14.7713 24.8084 14.916C21.0267 15.2068 16.5386 14.1995 12.5732 9.07758L12.8296 8.87913L13.0859 8.68067C16.9008 13.6082 21.1654 14.5459 24.7587 14.2695C26.5661 14.1305 28.2103 13.6831 29.555 13.2651C30.2172 13.0592 30.8324 12.8521 31.3294 12.7037C31.8232 12.5562 32.2666 12.4451 32.6043 12.4451V12.7692ZM12.8296 8.87913L12.5732 9.07758C9.4852 5.08886 7.01981 3.51666 5.3623 2.92801C4.53418 2.63391 3.90323 2.58355 3.48947 2.60194C3.2821 2.61116 3.12786 2.63771 3.0293 2.66037C2.97997 2.67171 2.94451 2.6821 2.92324 2.68889C2.9126 2.69229 2.9055 2.69479 2.90199 2.69606C2.90025 2.6967 2.89938 2.69703 2.89943 2.69702C2.89945 2.69701 2.8997 2.69691 2.90018 2.69672C2.90041 2.69663 2.9007 2.69651 2.90105 2.69637C2.90123 2.6963 2.90154 2.69618 2.90162 2.69614C2.90194 2.69601 2.90228 2.69588 2.78013 2.3956C2.65798 2.09531 2.65834 2.09517 2.65872 2.09501C2.65887 2.09495 2.65926 2.0948 2.65955 2.09468C2.66013 2.09444 2.66077 2.09419 2.66148 2.09391C2.66289 2.09335 2.66454 2.09271 2.66642 2.09198C2.67019 2.09053 2.67491 2.08875 2.68059 2.08669C2.69193 2.08257 2.70708 2.07731 2.72598 2.07128C2.76377 2.0592 2.81657 2.04401 2.88401 2.02851C3.01894 1.99748 3.21218 1.96527 3.46069 1.95423C3.95868 1.9321 4.67305 1.9952 5.57928 2.31704C7.39045 2.96027 9.94978 4.62984 13.0859 8.68067L12.8296 8.87913ZM2.78013 2.3956L2.94096 2.67706C2.88197 2.71077 2.89463 2.72084 2.90869 2.68718C2.9267 2.64405 2.91673 2.60437 2.91062 2.59079C2.90782 2.58456 2.9116 2.5949 2.93456 2.61497C2.95595 2.63365 2.97904 2.64765 2.99205 2.65382C2.99953 2.65738 2.99422 2.65387 2.97774 2.65008C2.96996 2.64829 2.94854 2.64378 2.91859 2.64423C2.89508 2.64459 2.8226 2.64814 2.74829 2.7006C2.65269 2.76809 2.61262 2.87358 2.61517 2.96584C2.61716 3.0377 2.64357 3.08679 2.65144 3.10084C2.66921 3.13253 2.68459 3.14356 2.66937 3.1291C2.61404 3.07658 2.42529 2.93668 1.97094 2.67705L2.13177 2.39558L2.29261 2.11412C2.52388 2.24628 2.69919 2.3543 2.82986 2.44157C2.95766 2.52692 3.05238 2.59872 3.11578 2.65892C3.14395 2.68566 3.18606 2.72861 3.217 2.78381C3.23146 2.80961 3.26108 2.86836 3.26328 2.94789C3.26449 2.99148 3.25744 3.04496 3.23165 3.09981C3.20532 3.15581 3.16588 3.19944 3.12221 3.23027C3.04252 3.28652 2.96206 3.292 2.92835 3.29251C2.88821 3.29311 2.85439 3.28699 2.83239 3.28193C2.78746 3.27159 2.74644 3.25492 2.71408 3.23956C2.6474 3.20792 2.57426 3.16113 2.50793 3.10317C2.44318 3.04658 2.36777 2.96439 2.31937 2.85686C2.26768 2.74198 2.24572 2.59221 2.31042 2.4373C2.37116 2.29187 2.48918 2.18848 2.61929 2.11413L2.78013 2.3956Z" fill="#FA6262"/>
<defs>
<linearGradient id="paint0_linear_40_2535" x1="39.412" y1="2.08492" x2="39.412" y2="57.8296" gradientUnits="userSpaceOnUse">
<stop stop-color="#FA6262"/>
<stop offset="1" stop-opacity="0"/>
</linearGradient>
</defs>
</svg>
