<svg width="25" height="24" viewBox="0 0 25 24" xmlns="http://www.w3.org/2000/svg">
    <defs>
        <mask id="chart-cutout" maskUnits="userSpaceOnUse">
            <!-- Full square white -->
            <path d="M16.39 2H8.01001C4.37001 2 2.20001 4.17 2.20001 7.81V16.18C2.20001 19.83 4.37001 22 8.01001 22H16.38C20.02 22 22.19 19.83 22.19 16.19V7.81C22.2 4.17 20.03 2 16.39 2Z" fill="white"/>

            <!-- Inner icons as transparent (black) -->
            <path d="M7.08002 18.9001C6.67002 18.9001 6.33002 18.5601 6.33002 18.1501V16.0801C6.33002 15.6701 6.67002 15.3301 7.08002 15.3301C7.49002 15.3301 7.83002 15.6701 7.83002 16.0801V18.1501C7.83002 18.5701 7.49002 18.9001 7.08002 18.9001Z" fill="black"/>
            <path d="M12.2 18.9C11.79 18.9 11.45 18.56 11.45 18.15V14C11.45 13.59 11.79 13.25 12.2 13.25C12.61 13.25 12.95 13.59 12.95 14V18.15C12.95 18.57 12.61 18.9 12.2 18.9Z" fill="black"/>
            <path d="M17.32 18.8999C16.91 18.8999 16.57 18.5599 16.57 18.1499V11.9299C16.57 11.5199 16.91 11.1799 17.32 11.1799C17.73 11.1799 18.07 11.5199 18.07 11.9299V18.1499C18.07 18.5699 17.74 18.8999 17.32 18.8999Z" fill="black"/>
            <path d="M18.07 5.8201C18.07 5.7701 18.05 5.7101 18.04 5.6601C18.03 5.6201 18.02 5.5701 18.01 5.5301C17.99 5.4901 17.96 5.4601 17.94 5.4201C17.91 5.3801 17.88 5.3301 17.84 5.3001C17.83 5.2901 17.83 5.2801 17.82 5.2801C17.79 5.2601 17.76 5.2501 17.73 5.2301C17.69 5.2001 17.64 5.1701 17.59 5.1501C17.54 5.1301 17.49 5.1301 17.44 5.1201C17.4 5.1101 17.37 5.1001 17.33 5.1001H14.4C13.99 5.1001 13.65 5.4401 13.65 5.8501C13.65 6.2601 13.99 6.6001 14.4 6.6001H15.65C13.27 9.1001 10.27 10.8601 6.89999 11.7101C6.49999 11.8101 6.24999 12.2201 6.34999 12.6201C6.42999 12.9601 6.73999 13.1901 7.07999 13.1901C7.13999 13.1901 7.19999 13.1801 7.25999 13.1701C10.83 12.2801 14.02 10.4301 16.57 7.8101V8.7801C16.57 9.1901 16.91 9.5301 17.32 9.5301C17.73 9.5301 18.07 9.1901 18.07 8.7801V5.8501C18.07 5.8401 18.07 5.8301 18.07 5.8201Z" fill="black"/>
        </mask>
    </defs>

    <!-- Final square with cutout -->
    <path d="M16.39 2H8.01001C4.37001 2 2.20001 4.17 2.20001 7.81V16.18C2.20001 19.83 4.37001 22 8.01001 22H16.38C20.02 22 22.19 19.83 22.19 16.19V7.81C22.2 4.17 20.03 2 16.39 2Z" fill="#B3B4B8" mask="url(#chart-cutout)"/>
</svg>
