<svg width="78" height="58" viewBox="0 0 78 58" fill="none" xmlns="http://www.w3.org/2000/svg">
<path d="M74.7472 57.8296V2.75139V2.09958C70.8571 1.42304 69.5137 4.33331 67.2912 6.62228C65.0219 9.21506 61.7802 15.0488 53.0612 14.8099C51.7307 14.4006 48.7897 13.5063 43.5325 12.5286C35.1978 11.1483 29.7132 26.0465 27.7417 28.6538C25.7703 31.261 22.9262 31.9018 21.936 31.9018C20.9458 31.9018 17.9692 31.2537 16.6549 31.2537C9.2948 30.9929 3.88424 37.1889 2.13184 40.2307V57.8296H74.7472Z" fill="url(#paint0_linear_84_3029)"/>
<path d="M1.92435 42.1187L4.25057 40.8559L2.98776 38.5297L0.661539 39.7925L1.92435 42.1187ZM16.3956 30.9231V30.5989H16.3864L16.3771 30.5994L16.3956 30.9231ZM30.3352 24.7638L30.0601 24.5919L30.0548 24.601L30.3352 24.7638ZM45.2473 12.7692L45.1416 13.0757L45.1929 13.0934H45.2473V12.7692ZM65.022 8.87913L64.7657 8.68067L65.022 8.87913ZM75.0714 2.3956L75.2323 2.11413L75.2136 2.10344L75.1936 2.09531L75.0714 2.3956ZM77.3448 1.46699L74.7912 0.770558L74.0948 3.32418L76.6484 4.02061L77.3448 1.46699ZM2.45605 40.3242L2.76687 40.4163C3.59842 37.6098 7.49342 31.7565 16.4141 31.2467L16.3956 30.9231L16.3771 30.5994C7.14396 31.1271 3.04263 37.2034 2.14524 40.2321L2.45605 40.3242ZM16.3956 30.9231V31.2473C17.2444 31.2473 18.1489 31.4786 19.1927 31.6915C20.2177 31.9006 21.3445 32.0823 22.5539 31.9337C25.0054 31.6327 27.672 29.9959 30.6155 24.9265L30.3352 24.7638L30.0548 24.601C27.1631 29.5811 24.643 31.024 22.4749 31.2902C21.3746 31.4253 20.3335 31.2625 19.3223 31.0563C18.3298 30.8538 17.3298 30.5989 16.3956 30.5989V30.9231ZM30.3352 24.7638L30.6101 24.9356C30.8242 24.593 31.0699 24.0948 31.3484 23.5102C31.6301 22.9187 31.9492 22.2301 32.3177 21.4831C33.054 19.9904 33.9751 18.2901 35.1313 16.775C36.2885 15.2587 37.6674 13.9463 39.3121 13.2067C40.9467 12.4716 42.8671 12.2914 45.1416 13.0757L45.2473 12.7692L45.3529 12.4628C42.9269 11.6262 40.8356 11.8107 39.0461 12.6154C37.2667 13.4156 35.809 14.8183 34.6159 16.3816C33.4219 17.9462 32.479 19.6903 31.7362 21.1962C31.3652 21.9485 31.041 22.6478 30.763 23.2314C30.4818 23.8219 30.2514 24.2861 30.0603 24.5919L30.3352 24.7638ZM45.2473 12.7692V13.0934C45.4769 13.0934 45.8338 13.1747 46.3366 13.3249C46.8362 13.4741 47.4138 13.6696 48.1041 13.8842C49.4642 14.307 51.1631 14.7713 53.0431 14.916C56.8248 15.2068 61.313 14.1995 65.2783 9.07758L65.022 8.87913L64.7657 8.68067C60.9508 13.6082 56.6862 14.5459 53.0929 14.2695C51.2854 14.1305 49.6413 13.6831 48.2965 13.2651C47.6344 13.0592 47.0191 12.8521 46.5221 12.7037C46.0284 12.5562 45.5849 12.4451 45.2473 12.4451V12.7692ZM65.022 8.87913L65.2783 9.07758C68.3664 5.08886 70.8318 3.51666 72.4893 2.92801C73.3174 2.63391 73.9483 2.58355 74.3621 2.60194C74.5695 2.61116 74.7237 2.63771 74.8223 2.66037C74.8716 2.67171 74.9071 2.6821 74.9283 2.68889C74.939 2.69229 74.9461 2.69479 74.9496 2.69606C74.9513 2.6967 74.9522 2.69703 74.9521 2.69702C74.9521 2.69701 74.9519 2.69691 74.9514 2.69672C74.9511 2.69663 74.9509 2.69651 74.9505 2.69637C74.9503 2.6963 74.95 2.69618 74.9499 2.69614C74.9496 2.69601 74.9493 2.69588 75.0714 2.3956C75.1936 2.09531 75.1932 2.09517 75.1928 2.09501C75.1927 2.09495 75.1923 2.0948 75.192 2.09468C75.1914 2.09444 75.1908 2.09419 75.1901 2.09391C75.1887 2.09335 75.187 2.09271 75.1851 2.09198C75.1814 2.09053 75.1767 2.08875 75.171 2.08669C75.1596 2.08257 75.1445 2.07731 75.1256 2.07128C75.0878 2.0592 75.035 2.04401 74.9676 2.02851C74.8326 1.99748 74.6394 1.96527 74.3909 1.95423C73.8929 1.9321 73.1785 1.9952 72.2723 2.31704C70.4611 2.96027 67.9018 4.62984 64.7657 8.68067L65.022 8.87913ZM75.0714 2.3956L74.9106 2.67706C74.9696 2.71077 74.9569 2.72084 74.9429 2.68718C74.9249 2.64405 74.9348 2.60437 74.9409 2.59079C74.9437 2.58456 74.94 2.5949 74.917 2.61497C74.8956 2.63365 74.8725 2.64765 74.8595 2.65382C74.852 2.65738 74.8573 2.65387 74.8738 2.65008C74.8816 2.64829 74.903 2.64378 74.933 2.64423C74.9565 2.64459 75.029 2.64814 75.1033 2.7006C75.1989 2.76809 75.2389 2.87358 75.2364 2.96584C75.2344 3.0377 75.208 3.08679 75.2001 3.10084C75.1824 3.13253 75.167 3.14356 75.1822 3.1291C75.2375 3.07658 75.4263 2.93668 75.8806 2.67705L75.7198 2.39558L75.559 2.11412C75.3277 2.24628 75.1524 2.3543 75.0217 2.44157C74.8939 2.52692 74.7992 2.59872 74.7358 2.65892C74.7076 2.68566 74.6655 2.72861 74.6346 2.78381C74.6201 2.80961 74.5905 2.86836 74.5883 2.94789C74.5871 2.99148 74.5941 3.04496 74.6199 3.09981C74.6462 3.15581 74.6857 3.19944 74.7294 3.23027C74.809 3.28652 74.8895 3.292 74.9232 3.29251C74.9634 3.29311 74.9972 3.28699 75.0192 3.28193C75.0641 3.27159 75.1051 3.25492 75.1375 3.23956C75.2042 3.20792 75.2773 3.16113 75.3436 3.10317C75.4084 3.04658 75.4838 2.96439 75.5322 2.85686C75.5839 2.74198 75.6058 2.59221 75.5411 2.4373C75.4804 2.29187 75.3624 2.18848 75.2323 2.11413L75.0714 2.3956Z" fill="#24BC73"/>
<defs>
<linearGradient id="paint0_linear_84_3029" x1="38.4395" y1="2.08492" x2="38.4395" y2="57.8296" gradientUnits="userSpaceOnUse">
<stop stop-color="#24BC73"/>
<stop offset="1" stop-opacity="0"/>
</linearGradient>
</defs>
</svg>
