<svg width="24" height="25" viewBox="0 0 24 25" fill="none" xmlns="http://www.w3.org/2000/svg">
<g clip-path="url(#clip0_2_1551)">
<path d="M23.0001 13.4275C23.0001 12.5046 22.9252 11.8311 22.7631 11.1327H12.2245V15.2982H18.4104C18.2858 16.3334 17.6123 17.8923 16.1157 18.9399L16.0947 19.0793L19.4268 21.6607L19.6576 21.6837C21.7778 19.7256 23.0001 16.8447 23.0001 13.4275Z" fill="#0074D9"/>
<path d="M12.2245 24.4024C15.255 24.4024 17.7992 23.4046 19.6576 21.6835L16.1156 18.9397C15.1678 19.6007 13.8956 20.0622 12.2245 20.0622C9.25624 20.0622 6.73698 18.1042 5.83894 15.3978L5.70731 15.409L2.24255 18.0904L2.19724 18.2164C4.04302 21.883 7.83441 24.4024 12.2245 24.4024Z" fill="#34A853"/>
<path d="M5.83895 15.3979C5.602 14.6995 5.46486 13.9511 5.46486 13.1779C5.46486 12.4046 5.602 11.6563 5.82649 10.9579L5.82021 10.8092L2.31203 8.08472L2.19725 8.13931C1.43651 9.66087 1 11.3695 1 13.1779C1 14.9863 1.43651 16.6949 2.19725 18.2164L5.83895 15.3979Z" fill="#0074D9"/>
<path d="M12.2245 6.2936C14.3321 6.2936 15.7539 7.20402 16.5646 7.96485L19.7324 4.87186C17.7868 3.06347 15.255 1.95349 12.2245 1.95349C7.83441 1.95349 4.04302 4.47275 2.19724 8.13938L5.82647 10.958C6.73698 8.25167 9.25624 6.2936 12.2245 6.2936Z" fill="#EB4335"/>
</g>
<defs>
<clipPath id="clip0_2_1551">
<rect width="24" height="24" fill="white" transform="translate(0 0.953491)"/>
</clipPath>
</defs>
</svg>
