<svg width="25" height="24" viewBox="0 0 25 24" fill="none" xmlns="http://www.w3.org/2000/svg">
<path d="M13.2483 2.75137C12.7797 2.28275 12.0199 2.28275 11.5513 2.75137L3.15128 11.1514C2.68265 11.62 2.68265 12.3798 3.15128 12.8484C3.61991 13.3171 4.3797 13.3171 4.84833 12.8484L5.1998 12.497V20.3999C5.1998 21.0626 5.73706 21.5999 6.3998 21.5999H8.7998C9.46255 21.5999 9.9998 21.0626 9.9998 20.3999V17.9999C9.9998 17.3372 10.5371 16.7999 11.1998 16.7999H13.5998C14.2625 16.7999 14.7998 17.3372 14.7998 17.9999V20.3999C14.7998 21.0626 15.3371 21.5999 15.9998 21.5999H18.3998C19.0625 21.5999 19.5998 21.0626 19.5998 20.3999V12.497L19.9513 12.8484C20.4199 13.3171 21.1797 13.3171 21.6483 12.8484C22.117 12.3798 22.117 11.62 21.6483 11.1514L13.2483 2.75137Z" fill="#B3B4B8"/>
</svg>
