<svg width="23" height="23" viewBox="0 0 23 23" fill="none" xmlns="http://www.w3.org/2000/svg">
<path d="M14.3148 2.86987H14.431C16.5685 2.86989 17.9882 3.32943 18.8821 4.22339C19.7761 5.11736 20.2347 6.53705 20.2347 8.67456V14.488C20.2346 16.6254 19.7761 18.0453 18.8821 18.9392C17.9882 19.8331 16.5684 20.2917 14.431 20.2917H14.3148C12.3843 20.2917 11.0377 19.9099 10.138 19.1755C9.24813 18.4492 8.71995 17.3156 8.56183 15.6404V15.6394L8.56281 15.5945C8.57357 15.4924 8.65444 15.406 8.76691 15.3953H8.80988C8.89278 15.4058 8.97503 15.4705 9.00323 15.5564L9.01202 15.6013C9.14683 17.0566 9.56698 18.1602 10.4769 18.8787C11.3707 19.5845 12.6495 19.8464 14.3235 19.8464H14.4398C16.285 19.8464 17.6682 19.5243 18.5726 18.6199C19.4767 17.7155 19.7981 16.3329 19.7982 14.488V8.67456C19.7982 6.82964 19.4766 5.44713 18.5726 4.54272C17.6682 3.63832 16.285 3.31616 14.4398 3.31616H14.3235C12.6402 3.3162 11.355 3.58216 10.4603 4.30151C9.55348 5.03061 9.13971 6.14839 9.013 7.62183C8.99513 7.76839 8.88045 7.84944 8.76691 7.83862L8.75616 7.83765L8.71417 7.82983C8.61985 7.80297 8.54831 7.71167 8.55402 7.59839C8.69946 5.89586 9.22353 4.74292 10.1155 4.00464C11.017 3.2586 12.3714 2.8699 14.3148 2.86987Z" stroke="white" stroke-width="0.891582"/>
<path d="M14.2169 12.2497H4.07066C3.70512 12.2497 3.40198 11.9466 3.40198 11.581C3.40198 11.2155 3.70512 10.9124 4.07066 10.9124H14.2169C14.5824 10.9124 14.8855 11.2155 14.8855 11.581C14.8855 11.9466 14.5824 12.2497 14.2169 12.2497Z" fill="white"/>
<path d="M6.0589 15.2367C5.8895 15.2367 5.72009 15.1743 5.58636 15.0406L2.59956 12.0538C2.341 11.7952 2.341 11.3673 2.59956 11.1087L5.58636 8.1219C5.84492 7.86334 6.27288 7.86334 6.53143 8.1219C6.78999 8.38046 6.78999 8.80842 6.53143 9.06697L4.01717 11.5812L6.53143 14.0955C6.78999 14.3541 6.78999 14.782 6.53143 15.0406C6.40661 15.1743 6.2283 15.2367 6.0589 15.2367Z" fill="white"/>
</svg>
