<svg width="19" height="23" viewBox="0 0 19 23" fill="none" xmlns="http://www.w3.org/2000/svg">
<path d="M12 11.995L12.63 14.725C12.73 15.155 12.26 15.495 11.88 15.265L9.5 13.825L7.11 15.265C6.73 15.495 6.26 15.155 6.36 14.725L7 12.005L4.9 10.195C4.56 9.90503 4.74 9.35503 5.18 9.31503L7.96 9.07503L9.04 6.51503C9.21 6.10503 9.79 6.10503 9.96 6.51503L11.04 9.06503L13.82 9.30503C14.26 9.34503 14.44 9.89503 14.1 10.185L12 11.995ZM1.69 3.87503C0.97 4.19503 0.5 4.91503 0.5 5.70503V10.405C0.5 15.955 4.34 21.145 9.5 22.405C14.66 21.145 18.5 15.955 18.5 10.405V5.70503C18.5 4.91503 18.03 4.19503 17.31 3.87503L10.31 0.765029C9.79 0.535029 9.2 0.535029 8.69 0.765029L1.69 3.87503Z" fill="#B3B4B8"/>
</svg>
