<svg width="24" height="24" viewBox="0 0 24 24" fill="none" xmlns="http://www.w3.org/2000/svg">
<path d="M12 1.51172C17.792 1.51172 22.4883 6.20803 22.4883 12C22.4883 17.792 17.792 22.4883 12 22.4883C6.20803 22.4883 1.51172 17.792 1.51172 12C1.51172 6.20803 6.20803 1.51172 12 1.51172ZM12 3.26953C7.17947 3.26953 3.26953 7.17947 3.26953 12C3.26953 16.8205 7.17947 20.7305 12 20.7305C16.8205 20.7305 20.7305 16.8205 20.7305 12C20.7305 7.17947 16.8205 3.26953 12 3.26953Z" fill="white" stroke="white" stroke-width="0.0234375"/>
<path d="M12 16.2305C12.2455 16.2305 12.4807 16.3283 12.6543 16.502C12.8279 16.6756 12.9258 16.9107 12.9258 17.1562C12.9258 17.4018 12.8279 17.6369 12.6543 17.8105C12.4807 17.9842 12.2455 18.082 12 18.082C11.7545 18.082 11.5193 17.9842 11.3457 17.8105C11.1721 17.6369 11.0742 17.4018 11.0742 17.1562C11.0742 16.9107 11.1721 16.6756 11.3457 16.502C11.5193 16.3283 11.7545 16.2305 12 16.2305ZM12 6.48047C12.9816 6.48047 13.9066 6.81732 14.6074 7.43164C15.3363 8.0694 15.7387 8.92626 15.7363 9.84375L15.7256 10.0947C15.6229 11.342 14.7605 12.4411 13.4678 12.9385C13.2535 13.0212 13.069 13.1664 12.9385 13.3555C12.808 13.5447 12.7376 13.7692 12.7363 13.999V14.5312C12.7363 14.6278 12.657 14.7068 12.5605 14.707H11.4355C11.3389 14.707 11.2598 14.6279 11.2598 14.5312V14.0273C11.2598 13.4882 11.418 12.956 11.7236 12.5127C12.0246 12.0787 12.4449 11.7476 12.9395 11.5586C13.7421 11.2502 14.2617 10.5785 14.2617 9.84375C14.2617 8.80177 13.2442 7.95703 12 7.95703C10.7558 7.95703 9.73828 8.80177 9.73828 9.84375V10.0215C9.73828 10.1181 9.65915 10.1973 9.5625 10.1973H8.4375C8.34085 10.1973 8.26172 10.1181 8.26172 10.0215V9.84375C8.26172 8.92624 8.66371 8.0694 9.39258 7.43164L9.3916 7.43066C10.0925 6.81864 11.0184 6.48047 12 6.48047Z" fill="white" stroke="white" stroke-width="0.0234375"/>
</svg>
