<svg width="19" height="18" viewBox="0 0 19 18" fill="none" xmlns="http://www.w3.org/2000/svg">
<path d="M11.731 4.32469L10.1335 2.72719C9.66852 2.26219 8.85852 2.59219 8.85852 3.25969V3.75469C5.90352 4.12219 3.60852 6.64219 3.60852 9.70219C3.60852 12.4322 5.43102 14.7347 7.93602 15.4622C8.40102 15.5972 8.85852 15.2222 8.85852 14.7422V14.7197C8.85852 14.3972 8.65602 14.1047 8.34852 14.0147C6.47352 13.4747 5.10852 11.7497 5.10852 9.70219C5.10852 7.47469 6.72852 5.62969 8.85852 5.26969V6.41719C8.85852 7.08469 9.66102 7.41469 10.1335 6.94969L11.731 5.38969C12.031 5.10469 12.031 4.62469 11.731 4.32469ZM15.361 8.02219C15.241 7.60969 15.076 7.21219 14.866 6.82969C14.6335 6.40219 14.041 6.33469 13.696 6.67969L13.6885 6.68719C13.456 6.91969 13.4035 7.27219 13.561 7.55719C13.711 7.83469 13.831 8.12719 13.921 8.42719C14.011 8.74219 14.3035 8.95219 14.626 8.95219H14.641C15.1285 8.95219 15.5035 8.48719 15.361 8.02219ZM10.3585 14.7122V14.7272C10.3585 15.2147 10.8235 15.5822 11.2885 15.4472C11.701 15.3272 12.0985 15.1622 12.481 14.9522C12.9085 14.7197 12.976 14.1272 12.631 13.7822L12.616 13.7672C12.3835 13.5347 12.031 13.4822 11.746 13.6397C11.4685 13.7972 11.176 13.9172 10.876 14.0072C10.5685 14.0972 10.3585 14.3897 10.3585 14.7122ZM13.6885 12.7247C14.0335 13.0697 14.626 13.0022 14.8585 12.5747C15.0685 12.1922 15.2335 11.7947 15.361 11.3822C15.496 10.9172 15.1285 10.4522 14.641 10.4522H14.626C14.296 10.4522 14.011 10.6622 13.921 10.9772C13.831 11.2772 13.711 11.5697 13.561 11.8547C13.4035 12.1397 13.4635 12.4997 13.6885 12.7247Z" fill="white"/>
</svg>
