<svg width="19" height="18" viewBox="0 0 19 18" fill="none" xmlns="http://www.w3.org/2000/svg">
<path d="M5.56311 8.25C6.39154 8.25 7.06311 7.57843 7.06311 6.75C7.06311 5.92157 6.39154 5.25 5.56311 5.25C4.73468 5.25 4.06311 5.92157 4.06311 6.75C4.06311 7.57843 4.73468 8.25 5.56311 8.25Z" stroke="white" stroke-width="1.125" stroke-linecap="round" stroke-linejoin="round"/>
<path d="M4.48352 15.7499C8.66102 8.32493 12.1335 7.01987 16.0635 11.8424" stroke="white" stroke-width="1.125" stroke-linecap="round" stroke-linejoin="round"/>
<path d="M10.2731 2.25H4.06311C3.26746 2.25 2.5044 2.56602 1.94179 3.12863C1.37918 3.69124 1.06311 4.45435 1.06311 5.25V12.75C1.06311 13.5456 1.37918 14.3087 1.94179 14.8713C2.5044 15.4339 3.26746 15.75 4.06311 15.75H13.0631C13.8588 15.75 14.6218 15.4339 15.1844 14.8713C15.747 14.3087 16.0631 13.5456 16.0631 12.75V8.25" stroke="white" stroke-width="1.125" stroke-linecap="round" stroke-linejoin="round"/>
<path d="M14.3756 0.622559V6.62256" stroke="white" stroke-width="1.125" stroke-linecap="round" stroke-linejoin="round"/>
<path d="M16.7762 4.22241L14.3762 6.62241L11.9762 4.22241" stroke="white" stroke-width="1.125" stroke-linecap="round" stroke-linejoin="round"/>
</svg>
