<svg width="15" height="20" viewBox="0 0 15 20" fill="none" xmlns="http://www.w3.org/2000/svg">
<path fill-rule="evenodd" clip-rule="evenodd" d="M2.53796 5.47971L2.88102 8.56728L2.1868 8.6227C1.2187 8.69998 0.428201 9.42771 0.271268 10.3861C-0.0904227 12.595 -0.0904228 14.8481 0.271268 17.0569C0.428201 18.0154 1.2187 18.7431 2.1868 18.8204L3.68293 18.9398C6.04507 19.1284 8.41849 19.1284 10.7806 18.9398L12.2768 18.8204C13.2449 18.7431 14.0354 18.0154 14.1923 17.0569C14.554 14.8481 14.554 12.595 14.1923 10.3861C14.0354 9.42771 13.2449 8.69998 12.2768 8.6227L11.5824 8.56727L11.9255 5.47971C11.9659 5.11574 11.9659 4.7484 11.9255 4.38442L11.9027 4.17952C11.6612 2.00613 9.95264 0.286474 7.78085 0.0309697C7.41603 -0.0119508 7.04743 -0.0119508 6.6826 0.0309697C4.51082 0.286474 2.80221 2.00613 2.56073 4.17952L2.53796 4.38442C2.49752 4.7484 2.49752 5.11574 2.53796 5.47971ZM7.60559 1.5207C7.3572 1.49147 7.10625 1.49147 6.85786 1.5207C5.37924 1.69465 4.21597 2.86545 4.05155 4.34517L4.02879 4.55007C4.00058 4.80395 4.00058 5.06018 4.02879 5.31407L4.37759 8.45326C6.27839 8.33135 8.18506 8.33135 10.0859 8.45325L10.4347 5.31407C10.4629 5.06018 10.4629 4.80395 10.4347 4.55007L10.4119 4.34517C10.2475 2.86545 9.08422 1.69465 7.60559 1.5207ZM7.23175 12.2215C6.40332 12.2215 5.73175 12.8931 5.73175 13.7215C5.73175 14.55 6.40332 15.2215 7.23175 15.2215C8.06018 15.2215 8.73175 14.55 8.73175 13.7215C8.73175 12.8931 8.06018 12.2215 7.23175 12.2215Z" fill="#B3B4B8"/>
</svg>
