<svg width="25" height="24" viewBox="0 0 25 24" xmlns="http://www.w3.org/2000/svg">
    <defs>
        <mask id="gear-cutout" maskUnits="userSpaceOnUse">
            <!-- White = visible, Black = transparent -->
            <!-- Gear outer shape white -->
            <path d="M2.59998 12.8799V11.1199C2.59998 10.0799 3.44998 9.21994 4.49998 9.21994C6.30998 9.21994 7.04998 7.93994 6.13998 6.36994C5.61998 5.46994 5.92998 4.29994 6.83998 3.77994L8.56998 2.78994C9.35998 2.31994 10.38 2.59994 10.85 3.38994L10.96 3.57994C11.86 5.14994 13.34 5.14994 14.25 3.57994L14.36 3.38994C14.83 2.59994 15.85 2.31994 16.64 2.78994L18.37 3.77994C19.28 4.29994 19.59 5.46994 19.07 6.36994C18.16 7.93994 18.9 9.21994 20.71 9.21994C21.75 9.21994 22.61 10.0699 22.61 11.1199V12.8799C22.61 13.9199 21.76 14.7799 20.71 14.7799C18.9 14.7799 18.16 16.0599 19.07 17.6299C19.59 18.5399 19.28 19.6999 18.37 20.2199L16.64 21.2099C15.85 21.6799 14.83 21.3999 14.36 20.6099L14.25 20.4199C13.35 18.8499 11.87 18.8499 10.96 20.4199L10.85 20.6099C10.38 21.3999 9.35998 21.6799 8.56998 21.2099L6.83998 20.2199C5.92998 19.6999 5.61998 18.5299 6.13998 17.6299C7.04998 16.0599 6.30998 14.7799 4.49998 14.7799C3.44998 14.7799 2.59998 13.9199 2.59998 12.8799Z" fill="white"/>
            <!-- Center circle black = transparent -->
            <circle cx="12.6" cy="12" r="3.25" fill="black"/>
        </mask>
    </defs>

    <!-- Gear with cutout center -->
    <path d="M2.59998 12.8799V11.1199C2.59998 10.0799 3.44998 9.21994 4.49998 9.21994C6.30998 9.21994 7.04998 7.93994 6.13998 6.36994C5.61998 5.46994 5.92998 4.29994 6.83998 3.77994L8.56998 2.78994C9.35998 2.31994 10.38 2.59994 10.85 3.38994L10.96 3.57994C11.86 5.14994 13.34 5.14994 14.25 3.57994L14.36 3.38994C14.83 2.59994 15.85 2.31994 16.64 2.78994L18.37 3.77994C19.28 4.29994 19.59 5.46994 19.07 6.36994C18.16 7.93994 18.9 9.21994 20.71 9.21994C21.75 9.21994 22.61 10.0699 22.61 11.1199V12.8799C22.61 13.9199 21.76 14.7799 20.71 14.7799C18.9 14.7799 18.16 16.0599 19.07 17.6299C19.59 18.5399 19.28 19.6999 18.37 20.2199L16.64 21.2099C15.85 21.6799 14.83 21.3999 14.36 20.6099L14.25 20.4199C13.35 18.8499 11.87 18.8499 10.96 20.4199L10.85 20.6099C10.38 21.3999 9.35998 21.6799 8.56998 21.2099L6.83998 20.2199C5.92998 19.6999 5.61998 18.5299 6.13998 17.6299C7.04998 16.0599 6.30998 14.7799 4.49998 14.7799C3.44998 14.7799 2.59998 13.9199 2.59998 12.8799Z" fill="#B3B4B8" mask="url(#gear-cutout)"/>
</svg>
