<svg width="105" height="105" viewBox="0 0 105 105" fill="none" xmlns="http://www.w3.org/2000/svg">
<g filter="url(#filter0_i_2_1728)">
<g clip-path="url(#clip0_2_1728)">
<path d="M0.196777 52.3779C0.196777 23.4916 23.6137 0.074707 52.5 0.074707C81.3863 0.074707 104.803 23.4916 104.803 52.3779C104.803 81.2642 81.3863 104.681 52.5 104.681C23.6137 104.681 0.196777 81.2642 0.196777 52.3779Z" fill="#00BDB0"/>
<path d="M25.0408 33.0257C25.0408 27.8995 25.0408 25.3364 26.0384 23.3785C26.9159 21.6562 28.3162 20.256 30.0384 19.3784C31.9964 18.3808 34.5595 18.3808 39.6857 18.3808H65.968C71.0942 18.3808 73.6573 18.3808 75.6153 19.3784C77.3375 20.256 78.7378 21.6562 79.6153 23.3785C80.6129 25.3364 80.6129 27.8995 80.6129 33.0257V118.149C80.6129 123.275 80.6129 125.838 79.6153 127.796C78.7378 129.519 77.3375 130.919 75.6153 131.796C73.6573 132.794 71.0942 132.794 65.968 132.794H39.6857C34.5595 132.794 31.9964 132.794 30.0384 131.796C28.3162 130.919 26.9159 129.519 26.0384 127.796C25.0408 125.838 25.0408 123.275 25.0408 118.149V33.0257Z" fill="#00BDB0"/>
<path d="M27.656 31.4565C27.656 27.7949 27.656 25.9641 28.3686 24.5656C28.9954 23.3354 29.9956 22.3352 31.2258 21.7084C32.6243 20.9958 34.4551 20.9958 38.1166 20.9958H67.5372C71.1988 20.9958 73.0295 20.9958 74.4281 21.7084C75.6583 22.3352 76.6584 23.3354 77.2853 24.5656C77.9978 25.9641 77.9978 27.7949 77.9978 31.4565V119.718C77.9978 123.38 77.9978 125.211 77.2853 126.609C76.6584 127.839 75.6583 128.839 74.4281 129.466C73.0295 130.179 71.1988 130.179 67.5372 130.179H38.1166C34.4551 130.179 32.6243 130.179 31.2258 129.466C29.9956 128.839 28.9954 127.839 28.3686 126.609C27.656 125.211 27.656 123.38 27.656 119.718V31.4565Z" fill="white"/>
<rect x="44.6545" y="22.3082" width="16.9985" height="5.23664" rx="2.61832" fill="#00BDB0"/>
<g filter="url(#filter1_d_2_1728)">
<path d="M40.7318 58.9157C40.7318 52.4163 46.0006 47.1475 52.5 47.1475C58.9994 47.1475 64.2683 52.4163 64.2683 58.9157C64.2683 65.4152 58.9994 70.684 52.5 70.684C46.0006 70.684 40.7318 65.4152 40.7318 58.9157Z" fill="#00BDB0"/>
<path fill-rule="evenodd" clip-rule="evenodd" d="M52.5004 59.9132C50.3685 59.9132 48.4987 61.1674 48.4987 62.5965C48.4987 64.4353 51.511 64.4353 52.5004 64.4353C53.4898 64.4353 56.5016 64.4353 56.5016 62.5845C56.5016 61.1614 54.6318 59.9132 52.5004 59.9132Z" fill="white"/>
<path fill-rule="evenodd" clip-rule="evenodd" d="M52.4794 58.7209H52.4963C53.9646 58.7209 55.1589 57.5266 55.1589 56.0583C55.1589 54.5906 53.9646 53.3963 52.4963 53.3963C51.028 53.3963 49.8338 54.5906 49.8338 56.0572C49.8289 57.5206 51.0149 58.7154 52.4794 58.7209Z" fill="white"/>
</g>
</g>
</g>
<defs>
<filter id="filter0_i_2_1728" x="0.196777" y="-10.3859" width="104.606" height="115.067" filterUnits="userSpaceOnUse" color-interpolation-filters="sRGB">
<feFlood flood-opacity="0" result="BackgroundImageFix"/>
<feBlend mode="normal" in="SourceGraphic" in2="BackgroundImageFix" result="shape"/>
<feColorMatrix in="SourceAlpha" type="matrix" values="0 0 0 0 0 0 0 0 0 0 0 0 0 0 0 0 0 0 127 0" result="hardAlpha"/>
<feOffset dy="-10.4606"/>
<feGaussianBlur stdDeviation="8.7172"/>
<feComposite in2="hardAlpha" operator="arithmetic" k2="-1" k3="1"/>
<feColorMatrix type="matrix" values="0 0 0 0 0.0941176 0 0 0 0 0.101961 0 0 0 0 0.12549 0 0 0 0.2 0"/>
<feBlend mode="normal" in2="shape" result="effect1_innerShadow_2_1728"/>
</filter>
<filter id="filter1_d_2_1728" x="20.7318" y="31.1475" width="71.5365" height="71.5364" filterUnits="userSpaceOnUse" color-interpolation-filters="sRGB">
<feFlood flood-opacity="0" result="BackgroundImageFix"/>
<feColorMatrix in="SourceAlpha" type="matrix" values="0 0 0 0 0 0 0 0 0 0 0 0 0 0 0 0 0 0 127 0" result="hardAlpha"/>
<feOffset dx="4" dy="8"/>
<feGaussianBlur stdDeviation="12"/>
<feComposite in2="hardAlpha" operator="out"/>
<feColorMatrix type="matrix" values="0 0 0 0 0.498039 0 0 0 0 0.152941 0 0 0 0 1 0 0 0 0.25 0"/>
<feBlend mode="normal" in2="BackgroundImageFix" result="effect1_dropShadow_2_1728"/>
<feBlend mode="normal" in="SourceGraphic" in2="effect1_dropShadow_2_1728" result="shape"/>
</filter>
<clipPath id="clip0_2_1728">
<path d="M0.196777 52.3779C0.196777 23.4916 23.6137 0.074707 52.5 0.074707C81.3863 0.074707 104.803 23.4916 104.803 52.3779C104.803 81.2642 81.3863 104.681 52.5 104.681C23.6137 104.681 0.196777 81.2642 0.196777 52.3779Z" fill="white"/>
</clipPath>
</defs>
</svg>
