<svg width="21" height="21" viewBox="0 0 21 21" fill="none" xmlns="http://www.w3.org/2000/svg">
<path d="M17.92 9.99873C18.36 13.6287 16.4 15.8487 15.9 16.3887C15.64 15.5787 14.9 14.9987 14 14.9987H13V11.9987C13 11.4487 12.55 10.9987 12 10.9987H6V8.99873H8C8.55 8.99873 9 8.54873 9 7.99873V5.99873H11C12.1 5.99873 13 5.09873 13 3.99873V1.45873C12.05 1.15873 11.05 0.99873 10 0.99873C4.48 0.99873 0 5.47873 0 10.9987C0 16.5187 4.48 20.9987 10 20.9987C15.73 20.9987 20.51 16.1387 19.95 9.99873H17.92ZM9 18.9287C5.05 18.4387 2 15.0787 2 10.9987C2 10.3787 2.08 9.78873 2.21 9.20873L7 13.9987V14.9987C7 16.0987 7.9 16.9987 9 16.9987V18.9287ZM20 2.99873V2.10873C20 1.10873 19.32 0.18873 18.34 0.0287299C17.08 -0.18127 16 0.78873 16 1.99873V2.99873C15.45 2.99873 15 3.44873 15 3.99873V6.99873C15 7.54873 15.45 7.99873 16 7.99873H20C20.55 7.99873 21 7.54873 21 6.99873V3.99873C21 3.44873 20.55 2.99873 20 2.99873ZM19 2.99873H17V1.99873C17 1.44873 17.45 0.99873 18 0.99873C18.55 0.99873 19 1.44873 19 1.99873V2.99873Z" fill="#B3B4B8"/>
</svg>
