<svg width="24" height="24" viewBox="0 0 24 24" xmlns="http://www.w3.org/2000/svg">
    <defs>
        <!-- Icon cutout mask: white = visible, black = transparent -->
        <mask id="trend-cutout" maskUnits="userSpaceOnUse">
            <rect x="2" y="2" width="20" height="20" rx="4" fill="white"/>
            <path d="M16.83 9.40998C16.76 9.23998 16.62 9.09998 16.45 9.02998C16.37 8.99998 16.28 8.97998 16.19 8.97998H14.33C13.94 8.97998 13.63 9.28998 13.63 9.67998C13.63 10.07 13.94 10.38 14.33 10.38H14.51L12.4 12.49L11.38 10.97C11.26 10.8 11.08 10.68 10.87 10.66C10.65 10.64 10.46 10.71 10.31 10.86L7.33 13.84C7.06 14.11 7.06 14.55 7.33 14.83C7.47 14.97 7.64 15.03 7.82 15.03C8 15.03 8.18 14.96 8.31 14.83L10.69 12.45L11.71 13.97C11.83 14.14 12.01 14.26 12.22 14.28C12.44 14.3 12.63 14.23 12.78 14.08L15.5 11.36V11.54C15.5 11.93 15.81 12.24 16.2 12.24C16.59 12.24 16.9 11.93 16.9 11.54V9.66998C16.88 9.57998 16.87 9.48998 16.83 9.40998Z" fill="black"/>
        </mask>
    </defs>

    <!-- Filled square with transparent trend icon cutout -->
    <rect x="2" y="2" width="20" height="20" rx="4" fill="#B3B4B8" mask="url(#trend-cutout)"/>
</svg>
