<svg width="345" height="92" viewBox="0 0 345 92" fill="none" xmlns="http://www.w3.org/2000/svg">
<rect width="345" height="92" rx="10" fill="#5EDE99"/>
<path d="M345 78.3592V82C345 87.5228 340.523 92 335 92H10C4.47715 92 0 87.5229 0 82V61.6601C4.88853 55.2938 10.3743 49.0425 15.7892 44.7936C27.2792 35.7778 39.0883 35.7778 50.5783 41.7884C54.0364 43.5484 57.4671 45.8239 60.8785 48.0866C69.1167 53.5508 77.2421 58.9401 85.3675 56.8148C92.8105 54.9207 100.127 47.0573 107.396 39.2443C111.66 34.6611 115.909 30.0953 120.157 26.7619C131.966 17.746 143.456 17.746 154.946 26.7619C158.538 29.5043 162.1 33.0809 165.651 36.6459C173.774 44.801 181.837 52.8954 190.054 50.8042C195.374 49.4127 200.695 43.5109 206.046 37.5739C212.253 30.6889 218.502 23.7566 224.843 23.7566C230.549 23.7566 236.255 29.6851 241.999 35.6543C247.823 41.7057 253.687 47.7989 259.633 47.7989C265.713 47.7989 271.793 41.0662 277.921 34.2811C283.373 28.2444 288.862 22.1663 294.422 20.7513C305.912 17.746 317.721 35.7778 329.211 53.8095C334.626 62.3073 340.111 70.8051 345 78.3592Z" fill="url(#paint0_linear_10_1497)"/>
<defs>
<linearGradient id="paint0_linear_10_1497" x1="172.5" y1="20" x2="172.5" y2="171" gradientUnits="userSpaceOnUse">
<stop stop-color="#4DC885"/>
<stop offset="0.302083" stop-color="#4DC885" stop-opacity="0.2"/>
</linearGradient>
</defs>
</svg>
